<?xml version="1.0" encoding="UTF-8"?>
<svg width="361px" height="369px" viewBox="0 0 361 369" version="1.1" xmlns="http://www.w3.org/2000/svg" xmlns:xlink="http://www.w3.org/1999/xlink">
    <!-- Generator: Sketch 54.1 (76490) - https://sketchapp.com -->
    <title>House</title>
    <desc>Created with Sketch.</desc>
    <g id="Page-1" stroke="none" stroke-width="1" fill="none" fill-rule="evenodd">
        <g id="Home-NavBar-Collapsed" transform="translate(-1078.000000, -1838.000000)">
            <g id="House" transform="translate(1078.000000, 1838.000000)">
                <ellipse id="Oval" fill="#59483D" cx="137.5" cy="344" rx="137.5" ry="25"></ellipse>
                <ellipse id="Oval" fill="#708024" cx="136" cy="341.5" rx="131" ry="18.5"></ellipse>
                <g id="Arm" transform="translate(47.579901, 0.000000)">
                    <path d="M313.420099,0 L278.001966,9.60116724 L135.420099,18.7083777 C141.51873,43.1219078 143.043388,60.484313 139.994072,70.7955931 C152.577407,70.7955931 196.66565,67.6140996 272.258802,61.2511127 L313.420099,53.0739287 L313.420099,0 Z" id="Path-2" fill="#795D2E"></path>
                    <path d="M142.567743,18.2191893 C149.21326,38.841454 150.874639,56.4629948 147.551881,71.0838119 C142.957948,71.0838119 140.375345,71.0838119 139.804072,71.0838119 C141.386554,47.1844409 139.925229,30.3798632 135.420099,20.6700786 C135.947845,19.0361524 138.330392,18.2191893 142.567743,18.2191893 Z" id="Path-3" stroke="#795D2E" fill="#FFFFFF"></path>
                    <path d="M137.761745,31.6171511 L115.816787,38.7927865 C82.8456949,32.5160863 60.4014203,33.8147802 48.4839635,42.6888681 C38.1327012,41.3854858 16.8644401,39.3413323 10.984373,42.6888681 C10.984373,45.5649567 11.706651,47.0415503 13.151207,47.1186489 L32.9918426,48.1860471 C15.767088,58.4667225 7.1547107,64.1787876 7.1547107,65.3222425 C7.1547107,67.0374249 6.73935534,69.9612858 13.151207,69.1920138 C17.4257748,68.6791657 14.7270082,71.6393133 5.05490731,78.0724564 C0.512069421,81.7434839 -0.968787087,84.283381 0.612337785,85.6921476 C2.19346266,87.1009142 5.37864654,86.6976491 10.1678894,84.4823523 C22.0778299,75.6203822 28.2454693,71.1893971 28.6708076,71.1893971 C29.3088149,71.1893971 28.8879647,75.6446856 26.8174153,89.8747782 C25.4370491,99.3615065 27.3236293,103.233709 32.4771561,101.491385 C36.3527077,99.2901086 39.391188,92.7115989 41.592597,81.7558564 C44.8947105,65.3222425 61.8534785,57.1890049 71.5448694,61.2556237 C78.0057968,63.9667029 79.4009953,66.2282787 75.7304652,68.040351 C66.4372752,76.2443196 60.3744292,80.5812293 57.5419273,81.0510801 C53.2931744,81.7558564 36.0821368,93.8343001 39.6863998,99.5525329 C42.0892418,103.364688 46.6450484,102.776059 53.3538196,97.786645 C67.5421662,87.8822183 76.7444482,82.930005 80.9606656,82.930005 C87.2849917,82.930005 112.209095,74.8250782 116.501627,68.040351 C119.363315,63.5171995 126.450021,62.2149424 137.761745,64.1335796 C138.574517,66.4368162 138.980903,68.1229609 138.980903,69.1920138 C138.980903,70.7955931 141.365405,37.3589007 138.392752,33.2407683 C138.392752,32.1583568 138.182416,31.6171511 137.761745,31.6171511 Z" id="Path-4" stroke="#F4BF8A" fill="#F4BF8A"></path>
                </g>
                <g id="Coin" transform="translate(63.000000, 115.000000)">
                    <circle id="Oval" fill="#965800" cx="16.5" cy="16.5" r="16.5"></circle>
                    <circle id="Oval" stroke="#965800" fill="#FFDF61" cx="18.5" cy="18.5" r="16.5"></circle>
                    <text id="$" font-family="GillSans-Bold, Gill Sans" font-size="26" font-weight="bold" fill="#FFFFFF">
                        <tspan x="10" y="26">$</tspan>
                    </text>
                </g>
                <g id="Roof" transform="translate(35.131906, 170.798198)">
                    <polygon id="Path-5" stroke="#DA433F" fill="#DA433F" points="19.6400226 19.0499725 -2.27373675e-13 58.5296397 205.731065 58.5296397 186.868094 19.0499725"></polygon>
                    <polygon id="Path-6" stroke="#5B493A" fill="#5B493A" points="29.2965278 10.8499694 29.2965278 35.1650777 64.7115572 35.1650777 64.7115572 10.8499694"></polygon>
                    <polygon id="Path-7" stroke="#926745" fill="#926745" points="27.7988445 10.3446641 66.6791722 10.3446641 66.6791722 1.13686838e-13 27.7988445 1.13686838e-13"></polygon>
                </g>
                <g id="Buttons" transform="translate(206.000000, 56.000000)" fill="#FFFFFF">
                    <circle id="Oval" cx="3" cy="5" r="3"></circle>
                    <circle id="Oval" cx="16" cy="4" r="3"></circle>
                    <circle id="Oval" cx="29" cy="3" r="3"></circle>
                </g>
                <g transform="translate(44.692960, 229.798198)">
                    <polyline id="Path-8" stroke="#E9B582" fill="#FFFFFF" points="2.49642896 7.10542736e-15 2.49642896 113.681486 184.680576 113.681486 184.680576 7.10542736e-15"></polyline>
                    <path d="M2.91003745,112.883367 L2.91003745,105.49765 L73.8511676,105.49765 C71.4167496,71.9454799 77.9460091,55.1693949 93.4389463,55.1693949 C108.931883,55.1693949 115.464546,71.9454799 113.036935,105.49765 L184.175516,105.49765 L184.175516,112.883367 L109.311341,112.883367 C111.788263,78.4603331 106.497465,61.2488161 93.4389463,61.2488161 C80.3804272,61.2488161 75.3760458,78.4603331 78.4258022,112.883367 L2.91003745,112.883367 Z" id="Path-9" stroke="#E9B582" fill="#E9B582"></path>
                    <path d="M78.4258022,112.883367 L109.311341,112.883367 C110.823319,78.4603331 105.532521,61.2488161 93.4389463,61.2488161 C81.345372,61.2488161 76.3409906,78.4603331 78.4258022,112.883367 Z" id="Path-10" stroke="#5C483C" fill="#5C483C"></path>
                    <polygon id="Path-11" stroke="#956442" fill="#956442" points="82.0231947 83.8063041 85.1352438 83.8063041 85.1352438 97.024925 82.0231947 97.024925"></polygon>
                    <g id="Windows" transform="translate(23.081916, 14.201802)">
                        <g id="Window" transform="translate(0.000000, 44.681882)">
                            <path d="M0.5,29.5 C10.2231268,25.0416101 14.8897935,15.2412885 14.5,0.0990350653 C9.84084546,0.0990350653 5.08255352,0.0660233769 0.225124195,0 L0.5,29.5 Z" id="Path-12" fill="#E3981B"></path>
                            <path d="M14.2748758,29.5 C23.9980027,25.0416101 28.6646693,15.2412885 28.2748758,0.0990350653 C23.6157213,0.0990350653 18.8574293,0.0660233769 14,1.95399252e-14 L14.2748758,29.5 Z" id="Path-12" fill="#E3981B" transform="translate(21.148706, 14.750000) scale(-1, 1) translate(-21.148706, -14.750000) "></path>
                            <polygon stroke="#614745" stroke-width="2" points="0 1 13.1491394 1 13.1491394 14.5825747 0 14.5825747"></polygon>
                            <polygon stroke="#614745" stroke-width="2" points="15.2251242 1 28.3742636 1 28.3742636 14.5825747 15.2251242 14.5825747"></polygon>
                            <polygon stroke="#614745" stroke-width="2" points="15.2251242 16.318118 28.3742636 16.318118 28.3742636 29.9006927 15.2251242 29.9006927"></polygon>
                            <polygon stroke="#614745" stroke-width="2" points="0.225124195 16.318118 13.3742636 16.318118 13.3742636 29.9006927 0.225124195 29.9006927"></polygon>
                        </g>
                        <g id="Window" transform="translate(0.000000, 0.000000)">
                            <path d="M0.5,29.5 C10.2231268,25.0416101 14.8897935,15.2412885 14.5,0.0990350653 C9.84084546,0.0990350653 5.08255352,0.0660233769 0.225124195,0 L0.5,29.5 Z" id="Path-12" fill="#E3981B"></path>
                            <path d="M14.2748758,29.5 C23.9980027,25.0416101 28.6646693,15.2412885 28.2748758,0.0990350653 C23.6157213,0.0990350653 18.8574293,0.0660233769 14,1.95399252e-14 L14.2748758,29.5 Z" id="Path-12" fill="#E3981B" transform="translate(21.148706, 14.750000) scale(-1, 1) translate(-21.148706, -14.750000) "></path>
                            <polygon stroke="#614745" stroke-width="2" points="0 1 13.1491394 1 13.1491394 14.5825747 0 14.5825747"></polygon>
                            <polygon stroke="#614745" stroke-width="2" points="15.2251242 1 28.3742636 1 28.3742636 14.5825747 15.2251242 14.5825747"></polygon>
                            <polygon stroke="#614745" stroke-width="2" points="15.2251242 16.318118 28.3742636 16.318118 28.3742636 29.9006927 15.2251242 29.9006927"></polygon>
                            <polygon stroke="#614745" stroke-width="2" points="0.225124195 16.318118 13.3742636 16.318118 13.3742636 29.9006927 0.225124195 29.9006927"></polygon>
                        </g>
                        <g id="Window" transform="translate(56.225124, 0.000000)">
                            <path d="M0.5,29.5 C10.2231268,25.0416101 14.8897935,15.2412885 14.5,0.0990350653 C9.84084546,0.0990350653 5.08255352,0.0660233769 0.225124195,0 L0.5,29.5 Z" id="Path-12" fill="#E3981B"></path>
                            <path d="M14.2748758,29.5 C23.9980027,25.0416101 28.6646693,15.2412885 28.2748758,0.0990350653 C23.6157213,0.0990350653 18.8574293,0.0660233769 14,1.95399252e-14 L14.2748758,29.5 Z" id="Path-12" fill="#E3981B" transform="translate(21.148706, 14.750000) scale(-1, 1) translate(-21.148706, -14.750000) "></path>
                            <polygon stroke="#614745" stroke-width="2" points="0 1 13.1491394 1 13.1491394 14.5825747 0 14.5825747"></polygon>
                            <polygon stroke="#614745" stroke-width="2" points="15.2251242 1 28.3742636 1 28.3742636 14.5825747 15.2251242 14.5825747"></polygon>
                            <polygon stroke="#614745" stroke-width="2" points="15.2251242 16.318118 28.3742636 16.318118 28.3742636 29.9006927 15.2251242 29.9006927"></polygon>
                            <polygon stroke="#614745" stroke-width="2" points="0.225124195 16.318118 13.3742636 16.318118 13.3742636 29.9006927 0.225124195 29.9006927"></polygon>
                        </g>
                        <g id="Window" transform="translate(112.225124, 0.000000)">
                            <path d="M0.5,29.5 C10.2231268,25.0416101 14.8897935,15.2412885 14.5,0.0990350653 C9.84084546,0.0990350653 5.08255352,0.0660233769 0.225124195,0 L0.5,29.5 Z" id="Path-12" fill="#E3981B"></path>
                            <path d="M14.2748758,29.5 C23.9980027,25.0416101 28.6646693,15.2412885 28.2748758,0.0990350653 C23.6157213,0.0990350653 18.8574293,0.0660233769 14,1.95399252e-14 L14.2748758,29.5 Z" id="Path-12" fill="#E3981B" transform="translate(21.148706, 14.750000) scale(-1, 1) translate(-21.148706, -14.750000) "></path>
                            <polygon stroke="#614745" stroke-width="2" points="0 1 13.1491394 1 13.1491394 14.5825747 0 14.5825747"></polygon>
                            <polygon stroke="#614745" stroke-width="2" points="15.2251242 1 28.3742636 1 28.3742636 14.5825747 15.2251242 14.5825747"></polygon>
                            <polygon stroke="#614745" stroke-width="2" points="15.2251242 16.318118 28.3742636 16.318118 28.3742636 29.9006927 15.2251242 29.9006927"></polygon>
                            <polygon stroke="#614745" stroke-width="2" points="0.225124195 16.318118 13.3742636 16.318118 13.3742636 29.9006927 0.225124195 29.9006927"></polygon>
                        </g>
                        <g id="Window" transform="translate(112.225124, 45.000000)">
                            <path d="M0.5,29.5 C10.2231268,25.0416101 14.8897935,15.2412885 14.5,0.0990350653 C9.84084546,0.0990350653 5.08255352,0.0660233769 0.225124195,0 L0.5,29.5 Z" id="Path-12" fill="#E3981B"></path>
                            <path d="M14.2748758,29.5 C23.9980027,25.0416101 28.6646693,15.2412885 28.2748758,0.0990350653 C23.6157213,0.0990350653 18.8574293,0.0660233769 14,1.95399252e-14 L14.2748758,29.5 Z" id="Path-12" fill="#E3981B" transform="translate(21.148706, 14.750000) scale(-1, 1) translate(-21.148706, -14.750000) "></path>
                            <polygon stroke="#614745" stroke-width="2" points="0 1 13.1491394 1 13.1491394 14.5825747 0 14.5825747"></polygon>
                            <polygon stroke="#614745" stroke-width="2" points="15.2251242 1 28.3742636 1 28.3742636 14.5825747 15.2251242 14.5825747"></polygon>
                            <polygon stroke="#614745" stroke-width="2" points="15.2251242 16.318118 28.3742636 16.318118 28.3742636 29.9006927 15.2251242 29.9006927"></polygon>
                            <polygon stroke="#614745" stroke-width="2" points="0.225124195 16.318118 13.3742636 16.318118 13.3742636 29.9006927 0.225124195 29.9006927"></polygon>
                        </g>
                    </g>
                </g>
            </g>
        </g>
    </g>
</svg>